<svg xmlns="http://www.w3.org/2000/svg"  viewBox="0 0 48 48" width="48px" height="48px"><path d="M 24 4 C 12.972066 4 4 12.972074 4 24 C 4 35.027926 12.972066 44 24 44 C 35.027934 44 44 35.027926 44 24 C 44 12.972074 35.027934 4 24 4 z M 24 7 C 33.406615 7 41 14.593391 41 24 C 41 33.406609 33.406615 41 24 41 C 14.593385 41 7 33.406609 7 24 C 7 14.593391 14.593385 7 24 7 z M 24 9 C 19.08 9 14.720469 11.369297 11.980469 15.029297 C 13.580469 14.959297 15.509766 14.769531 15.509766 14.769531 L 15.599609 14.769531 C 16.429609 14.769531 16.509687 16.019609 15.679688 16.099609 C 15.679687 16.099609 14.769531 16.179531 13.769531 16.269531 L 19.75 34.060547 L 23.330078 23.330078 L 20.75 16.349609 C 19.84 16.269609 19.009766 16.179688 19.009766 16.179688 C 18.169766 16.179688 18.259844 14.849609 19.089844 14.849609 L 19.169922 14.849609 C 19.169922 14.849609 21.920234 15.099609 23.490234 15.099609 C 25.240234 15.099609 27.900391 14.849609 27.900391 14.849609 L 27.980469 14.849609 C 28.820469 14.849609 28.900312 16.099688 28.070312 16.179688 C 28.070313 16.179688 27.150156 16.269609 26.160156 16.349609 L 32.060547 33.970703 L 33.720703 28.490234 C 34.550703 26.320234 34.970703 24.579922 34.970703 23.169922 C 34.970703 21.169922 34.300625 19.759687 33.640625 18.679688 C 32.810625 17.349687 32.060547 16.179609 32.060547 14.849609 C 32.060547 13.869609 32.599375 12.829062 33.359375 12.289062 C 30.799375 10.229063 27.54 9 24 9 z M 38.179688 19.099609 C 38.009687 20.359609 37.590938 21.990078 36.960938 23.580078 L 32.580078 36.300781 C 36.460078 33.590781 39 29.09 39 24 C 39 22.28 38.709688 20.639609 38.179688 19.099609 z M 9.640625 19.689453 C 9.220625 21.059453 9 22.5 9 24 C 9 29.26 11.710313 33.890313 15.820312 36.570312 L 9.640625 19.689453 z M 23.990234 25.410156 L 19.589844 38.330078 C 20.989844 38.770078 22.47 39 24 39 C 25.64 39 27.230938 38.730234 28.710938 38.240234 L 23.990234 25.410156 z"/></svg>